<svg xmlns="http://www.w3.org/2000/svg" width="500" viewBox="0 0 375 375" height="500" version="1.0">
  <path fill="#febbaa" d="M208.523 317.32c-18.37 1.23-42.468 4.317-58.832-4.097-8.847-4.555-16.988-10.387-25.82-14.985-7.27-3.746-14.984-6.675-22.336-10.242a138.068 138.068 0 0 1-11.055-6.023 138.922 138.922 0 0 1-20.253-14.903 139.604 139.604 0 0 1-9.036-8.761 139.242 139.242 0 0 1-8.207-9.547 138.874 138.874 0 0 1-19.011-32.504c-3.575-8.723-6.297-17.906-11.496-25.778-4.676-7.085-11.473-13.433-12.489-21.855-.218-1.797-.105-3.746 1.032-5.184 2.152-2.675 6.656-1.738 9.136.637 2.477 2.375 3.746 5.715 5.91 8.39 2.164 2.677 5.957 4.708 8.993 3.06 4.418-2.415 2.507-8.954 2.644-13.97.188-6.831 5.328-12.66 6.145-19.48.672-5.598-1.649-11.074-2.645-16.625a36.34 36.34 0 0 1-.289-9.668 36.504 36.504 0 0 1 2.273-9.398 36.477 36.477 0 0 1 4.672-8.469 36.744 36.744 0 0 1 3.137-3.691 36.77 36.77 0 0 1 3.602-3.243c4.023-3.125 8.851-5.433 12.043-9.418 3.191-3.988 4.406-9.27 5.648-14.273 1.246-5.008 2.816-10.23 6.473-13.84 3.66-3.613 10.23-4.855 13.976-1.297 3.746 3.559 2.93 9.89.637 14.574-2.293 4.684-5.746 8.993-6.504 14.133-1.273 8.742 5.582 16.864 5.442 25.7-.07 4.285-1.793 8.347-3.485 12.289L78.45 143.016c-3.469 8.078-6.976 16.297-8.02 25.027-1.038 8.727.708 18.191 6.65 24.687 1.175 1.282 2.773 2.516 4.495 2.188 3.266-.629 2.953-5.328 2.14-8.543-.808-3.215.4-8.188 3.622-7.363a48.581 48.581 0 0 1 6.84 10.43 48.942 48.942 0 0 1 3.965 11.82c.402 2.05.675 4.113.816 6.195a48.36 48.36 0 0 1 .016 6.25 49.423 49.423 0 0 1-.782 6.2 48.076 48.076 0 0 1-1.574 6.046c-1.347 3.942-3.242 7.836-3.265 11.988 0 5.516 3.273 10.567 7.32 14.336 4.047 3.766 8.879 6.578 13.18 10.055 8.355 6.742 14.468 15.816 21.902 23.563 16.559 17.234 48.824 30.601 72.77 31.41"/>
  <path fill="#fe5f49" d="M150.371 308.441a37.309 37.309 0 0 1-26.012-4.695c-4.804-2.91-8.867-6.867-13.375-10.215C93.22 280.351 69.391 277.211 52 263.56a58.89 58.89 0 0 1-11.988-12.676c-3-4.258-5.41-8.992-6.13-14.149-.722-5.152.45-10.691 3.946-14.527a9.505 9.505 0 0 1 1.688-1.578 9.433 9.433 0 0 1 2.02-1.117 9.539 9.539 0 0 1 2.23-.59 9.478 9.478 0 0 1 2.304-.027c6.325.44 11.66 5.082 15.047 10.414 3.387 5.336 5.313 11.449 7.996 17.16 2.684 5.71 6.512 11.308 12.242 14.004 5.508 2.586 12.2 2.25 17.34 5.468 3.746 2.375 6.13 6.332 8.48 10.086 4.774 7.606 10.055 14.989 16.65 21.086 6.593 6.098 17.706 9.575 26.534 11.328m-96.328-94.895c-7.136-12.516-13.543-38.672-17.136-43.297-1.997-2.563-4.543-4.695-6.235-7.492-1.55-2.555-2.262-5.328-2.137-8.317.227-5.035 2.997-9.89 2.196-14.859-.457-2.785-2-5.242-3.41-7.715a94.163 94.163 0 0 1-4.864-9.781 10.11 10.11 0 0 1-.918-3.102c-.234-2.816 1.743-5.34 3.946-7.132 2.203-1.79 4.754-3.25 6.453-5.5 2.996-3.977 2.637-9.434 3.527-14.332a26.314 26.314 0 0 1 4.754-10.985 3.753 3.753 0 0 1 1.496-1.363 2.91 2.91 0 0 1 1.875-.07c3.633.855 5.418 5.171 5.152 8.886-.261 3.719-1.937 7.18-2.71 10.82a41.05 41.05 0 0 0-.48 10.169c.202 4.714.53 9.464 1.843 13.996.898 3.125 2.25 6.12 2.816 9.32 1.5 8.77-3.07 17.297-5.047 25.973-1.5 6.605-1.5 13.21 0 19.816.508 2.25 1.192 5.082 1.84 7.285 3.672 12.446 1.051 14.985 7.051 27.656m28.473-98.179c2.43-13.137 14.656-34.602 15.738-37.809l4.652-14.035c1.258-3.79 2.606-7.73 5.426-10.57 2.313-2.332 5.414-3.703 7.984-5.75a24.403 24.403 0 0 0 5.36-6.157c.808-1.28 1.594-2.668 2.898-3.449 1.305-.777 3.32-.597 3.973.75.473.996.058 2.16-.352 3.176a18.589 18.589 0 0 1-2.422 4.676c-1.265 1.613-2.996 2.781-4.316 4.379-4.309 5.347-2.246 14.039-6.84 19.136-2.797 3.094-7.418 4.051-10.199 7.153-2.777 3.105-17.856 22.594-21.902 38.5"/>
  <path fill="#febbaa" d="M164.543 317.32c23.977-.8 56.195-14.144 72.77-31.41 7.433-7.746 13.546-16.812 21.902-23.562 4.3-3.477 9.133-6.297 13.18-10.059 4.046-3.758 7.351-8.809 7.32-14.332 0-4.168-1.918-8.062-3.266-11.988a48.716 48.716 0 0 1-2.355-12.246 49.009 49.009 0 0 1 .836-12.442 48.243 48.243 0 0 1 1.601-6.039 48.89 48.89 0 0 1 5.446-11.215 49.201 49.201 0 0 1 3.753-4.996c3.223-.824 4.43 4.153 3.622 7.367-.809 3.215-1.125 7.922 2.14 8.543 1.711.329 3.313-.906 4.496-2.187 5.942-6.496 7.688-15.961 6.649-24.691-1.043-8.727-4.551-16.95-8.02-25.024l-10.383-24.187c-1.695-3.942-3.41-8.004-3.484-12.29-.145-8.835 6.742-16.957 5.438-25.699-.75-5.156-4.211-9.441-6.504-14.133-2.293-4.69-3.145-10.984.636-14.574 3.785-3.59 10.282-2.316 13.977 1.297 3.691 3.61 5.242 8.824 6.473 13.84 1.23 5.012 2.421 10.242 5.648 14.273 3.23 4.032 7.996 6.301 12.059 9.41a36.77 36.77 0 0 1 3.601 3.243 36.744 36.744 0 0 1 3.137 3.691 36.477 36.477 0 0 1 4.672 8.469 36.056 36.056 0 0 1 1.449 4.625 35.97 35.97 0 0 1 .824 4.773 36.45 36.45 0 0 1 .18 4.844 36.341 36.341 0 0 1-.469 4.824c-.996 5.551-3.316 11.02-2.644 16.625.816 6.79 5.996 12.618 6.144 19.48.145 5.024-1.77 11.555 2.645 13.97 3 1.648 6.828-.383 8.992-3.06 2.164-2.675 3.433-5.991 5.914-8.39 2.476-2.398 6.98-3.304 9.133-.636 1.136 1.406 1.25 3.386 1.03 5.183-1.015 8.422-7.812 14.77-12.487 21.86-5.2 7.867-7.922 17.05-11.496 25.773a139.483 139.483 0 0 1-5.344 11.398 139.068 139.068 0 0 1-6.356 10.864 138.895 138.895 0 0 1-15.515 19.797 138.638 138.638 0 0 1-18.828 16.675 137.795 137.795 0 0 1-10.465 6.996 138.027 138.027 0 0 1-11.055 6.02c-7.371 3.563-15.066 6.469-22.336 10.246-8.832 4.586-16.969 10.414-25.82 14.984-16.363 8.422-40.461 5.336-58.832 4.098"/>
  <path fill="#fe5f49" d="M222.715 308.441c8.828-1.753 19.941-5.242 26.535-11.328 6.594-6.086 11.875-13.488 16.648-21.086 2.352-3.746 4.735-7.71 8.48-10.086 5.142-3.25 11.833-2.882 17.34-5.468 5.731-2.696 9.54-8.286 12.243-14.004 2.707-5.719 4.61-11.84 7.996-17.172 3.387-5.336 8.723-9.98 15.047-10.418a9.286 9.286 0 0 1 2.305.031c.77.102 1.511.3 2.23.59.719.29 1.395.66 2.02 1.117.628.453 1.187.98 1.687 1.574 3.496 3.836 4.668 9.399 3.945 14.528-.718 5.133-3.16 9.89-6.128 14.148a59 59 0 0 1-11.989 12.68c-17.39 13.664-41.21 16.805-58.984 29.969-4.492 3.343-8.57 7.3-13.375 10.214a37.257 37.257 0 0 1-6.067 2.934 37.199 37.199 0 0 1-6.5 1.797 37.284 37.284 0 0 1-13.434-.02m96.326-94.894c5.991-12.664 3.378-15.211 7.05-27.656.648-2.203 1.332-5.059 1.84-7.286 1.5-6.605 1.5-13.21 0-19.816-1.977-8.68-6.578-17.234-5.047-25.973.558-3.199 1.918-6.203 2.816-9.32 1.309-4.535 1.64-9.285 1.844-13.996.262-3.41.102-6.8-.48-10.168-.75-3.648-2.442-7.105-2.711-10.82-.274-3.715 1.496-8.024 5.152-8.887a2.936 2.936 0 0 1 1.875.066 3.81 3.81 0 0 1 1.496 1.364 26.335 26.335 0 0 1 4.754 10.984c.898 4.902.531 10.356 3.527 14.336 1.7 2.246 4.262 3.688 6.457 5.477 2.196 1.793 4.184 4.316 3.95 7.132a10.118 10.118 0 0 1-.942 3.102 93.37 93.37 0 0 1-4.871 9.8c-1.402 2.458-2.953 4.927-3.41 7.72-.809 4.968 1.973 9.832 2.195 14.859.125 2.988-.586 5.758-2.137 8.316-1.683 2.774-4.23 4.906-6.234 7.492-3.594 4.625-10 30.782-17.133 43.293m-28.481-98.222c-4.046-15.93-19.07-35.328-21.886-38.469-2.82-3.14-7.406-4.063-10.2-7.156-4.609-5.094-2.53-13.785-6.839-19.137-1.29-1.594-3.05-2.766-4.316-4.375a18.722 18.722 0 0 1-2.422-4.676c-.41-1.02-.825-2.187-.352-3.176.645-1.37 2.668-1.542 3.973-.75 1.304.793 2.09 2.165 2.898 3.446a24.42 24.42 0 0 0 5.36 6.16c2.57 2.047 5.671 3.418 7.984 5.746 2.82 2.84 4.168 6.746 5.426 10.574l4.652 14.035c1.067 3.2 13.293 24.664 15.735 37.809"/>
  <path fill="#7333f9" d="M112.152 304.043v40.95H73.766v-40.95H.18v-25.656l62.445-86.914h40.773l-56.683 81.34h28.242v-23.668h37.195Zm45.465 32.395c-9.281-5.704-16.539-14.02-21.781-24.961-5.246-10.938-7.852-24.149-7.852-39.141 0-14.996 2.614-39.211 7.852-50.145 5.238-10.93 12.5-19.261 21.781-24.957 9.285-5.695 19.895-8.558 31.832-8.558 11.797 0 22.336 2.851 31.617 8.558 9.282 5.703 16.543 14.024 21.786 24.957 5.242 10.934 7.859 35.164 7.859 50.145 0 14.976-2.625 28.203-7.86 39.14-5.238 10.942-12.5 19.266-21.785 24.962-9.28 5.69-19.816 8.554-31.617 8.554-11.933 0-22.543-2.851-31.832-8.555Zm47.633-33.317c3.91-6.433 5.867-16.86 5.867-30.785 0-13.93-1.957-35.36-5.867-41.79-3.91-6.429-9.18-9.644-15.8-9.644-6.766 0-12.106 3.215-16.02 9.645-3.914 6.437-5.868 27.867-5.868 41.789s1.954 24.351 5.868 30.785c3.91 6.438 9.254 9.645 16.02 9.645 6.628.004 11.898-3.207 15.808-9.637Zm169.57.922v40.95h-38.382v-40.95h-73.59v-25.656l62.445-86.914h40.777l-56.691 81.34h28.25v-23.668h37.191Zm0 0"/>
  <path fill="#1b2e34" d="M169.945 91.293c-1.418-8.602 5.68-13.211 5.68-13.211s-2.422-2.84-3.465-9.66c-.5-3.305-1.64-20.977.48-27.274 3.126-9.23 11.864-11.14 16.868-10.293 5.004.844 3.445 1.91 8.566 1.497 5.117-.41 8.242.57 12.356 5.394 4.113 4.828 4.12 18.89 7.101 24.293 2.98 5.402 20.278 16.445 7.817 36.934-18.754 30.816-53.582 3.543-55.403-7.68Zm0 0"/>
  <path fill="#febbaa" d="M172.117 46.094v.449a1.644 1.644 0 0 0 0 .277v.422c-.254 4.106-.344 12.48-.488 16.77-.11 3.683-3.535 4.742-6.691 5.117-.891.11-1.75.164-2.516.207l-2.707-11.074c3.246-.465 5.629-6.864 6.379-10.489.75-3.625 2.71-7.941 4.734-7.98 1.223 0 1.55.953 1.625 2.629a28.131 28.131 0 0 1-.336 3.672Zm0 0"/>
  <path fill="#7333f9" d="M198.117 91.195c11.016.93 25.41 1.387 35.113 16.602 7.07 11.09 6.317 17.738 7.606 30.437 1.234 12.11-.7 23.625-1.09 28.88a2.304 2.304 0 0 1-.32 1.034 2.246 2.246 0 0 1-.746.785 2.261 2.261 0 0 1-.485.247 2.07 2.07 0 0 1-.53.129 2.56 2.56 0 0 1-.548.007c-.18-.02-.36-.062-.531-.12-4.008-1.387-10.844-4.212-12.035-7.657 0 0 1.71-32.601-1.766-35.742-3.074-2.774-5.246 40.273-5.246 40.273h-54.906s-3.246-27.101-3.63-34.675c-.382-7.579-3.745-9.84-13.702-11.614-9.492-1.695-28.63-7.758-28.113-22.308 1.003-28.246 41.914-40.762 41.914-40.762s3.793 11.172 3.222 14.582c0 0-25.949 10.047-25.379 21.797.336 6.914 12.313 7.2 17.985 5.68 5.672-1.52 15.57-5.305 25.968-6.536"/>
  <path fill="#f8f8f8" d="M198.117 91.195c5.492 5.918 8.52 27.649 8.145 40.153-.301 9.863 0 33.672 0 33.672-11.637 5.246-30.899 0-30.899 0s-1.09-20.395-2.625-31.774c-1.941-14.394-1.191-33.242 8.16-41.004 12.282-3.191 17.22-1.047 17.22-1.047Zm0 0"/>
  <path fill="#febbaa" d="M230.957 262.594c-6.105 2.246-25.992-1.852-27.984-7.387-1.598-4.437-.653-7.074.406-11.437.262-1.086.566-2.247.922-3.489l16.836 3.356c.11.933.406 1.804.883 2.613 2.246 3.246 8.16 5.098 10.73 6.969 3.11 2.277 4.285 7.097-1.793 9.375Zm0 0"/>
  <path fill="#fe5f49" d="M172.027 47.234c-.254 4.106-.343 12.48-.488 16.77-.11 3.683-3.535 4.742-6.691 5.117 4.757-1.531 6.543-14.508 7.18-21.887Zm0 0"/>
  <path fill="#febbaa" d="M171.766 52.652c7.132-1.613 10.488-7.765 10.488-7.765s3.621 12.265 13.75 13.968c0 0 1.363-3.68 5.191-2.734 3.832.941 2.938 12.152-2.465 12.34 0 0 2.16 13.23-9.28 14.492-11.188 1.227-14.778-5.305-14.778-5.305s-5.156-7.57-2.906-24.996Zm0 0"/>
  <path fill="#febbaa" d="m196.992 78.36 1.125 12.835s-3.207 7.493-8.61 7.493c-5.402 0-8.609-6.438-8.609-6.438V81.965Zm0 0"/>
  <path fill="#fe5f49" d="M180.898 81.965c10.586 1.086 16.094-3.606 16.094-3.606l.528 5.993s-10.567.902-16.622-2.387Zm0 0"/>
  <path fill="#1b2e34" d="M186.75 62.758c0 .238-.043.469-.137.687-.09.22-.218.41-.386.578a1.775 1.775 0 0 1-1.266.528 1.76 1.76 0 0 1-1.266-.527 1.76 1.76 0 0 1-.527-1.266 1.78 1.78 0 0 1 .527-1.266c.168-.168.36-.297.578-.387.22-.093.45-.136.688-.136.238 0 .465.043.684.136a1.764 1.764 0 0 1 .968.97c.094.218.137.445.137.683Zm-5.86 8.117a.728.728 0 0 0-.218-.531.728.728 0 0 0-.531-.219c-.403 0-.696-.09-.746-.21-.188-.27 0-1.126.492-2.524a.701.701 0 0 0-.024-.575.706.706 0 0 0-.422-.39.733.733 0 0 0-.574.023.711.711 0 0 0-.387.422c-.66 1.8-.93 3-.332 3.89.235.305.532.532.883.684a2.13 2.13 0 0 0 1.102.176.701.701 0 0 0 .515-.226.701.701 0 0 0 .211-.52Zm7.458-11.473a.733.733 0 0 0-.11-.562.715.715 0 0 0-.476-.32 4.295 4.295 0 0 1-1.203-.485 4.338 4.338 0 0 1-1.008-.816 4.35 4.35 0 0 1-1.086-2.328.732.732 0 0 0-.313-.493.73.73 0 0 0-.566-.125.732.732 0 0 0-.492.313.715.715 0 0 0-.125.566 5.77 5.77 0 0 0 2.863 4.207c.512.293 1.055.5 1.629.63h.152a.723.723 0 0 0 .446-.176.73.73 0 0 0 .25-.41Zm-13.887-.105a5.446 5.446 0 0 0 1.594-.371 5.454 5.454 0 0 0 1.41-.832 5.45 5.45 0 0 0 1.793-2.691.73.73 0 0 0-.059-.56.714.714 0 0 0-.43-.359.73.73 0 0 0-.558.036.707.707 0 0 0-.375.417 4.114 4.114 0 0 1-.496 1.083 3.966 3.966 0 0 1-2.977 1.777.748.748 0 0 0-.523.234.714.714 0 0 0-.203.535.715.715 0 0 0 .23.524c.149.144.328.21.535.207Zm2.316 1.168a1.773 1.773 0 0 0-.695.117 1.712 1.712 0 0 0-.594.371 1.82 1.82 0 0 0-.563 1.262c-.003.238.04.469.126.695a1.776 1.776 0 0 0 .957.988c.222.098.449.145.687.149a1.798 1.798 0 0 0 1.282-.516 1.799 1.799 0 0 0-.55-2.922 1.843 1.843 0 0 0-.68-.144Zm0 0"/>
  <path fill="#fe5f49" d="m189 116.29 3.078 1.683c.363.199.543.504.543.914 0 .414-.18.718-.543.914L189 121.496c-.18.098-.316.234-.414.41l-1.684 3.082c-.199.36-.504.543-.914.543a.974.974 0 0 1-.914-.543l-1.687-3.082a1.021 1.021 0 0 0-.414-.41l-3.118-1.656a.979.979 0 0 1-.539-.914c0-.414.18-.719.54-.914l3.082-1.688c.175-.097.312-.234.41-.41l1.687-3.082c.195-.36.5-.539.914-.539.41 0 .715.18.914.539l1.688 3.082c.113.168.262.293.449.375Zm0 0"/>
  <path fill="#febbaa" d="M158.629 262.855c1.793-2.628 6.746-6.375 7.75-10.183a6.63 6.63 0 0 0-.055-2.758l14.711-8.855a85.278 85.278 0 0 1 2.05 2.996c2.466 3.746 4.25 5.906 4.25 10.625 0 5.882-17.323 16.484-23.835 16.418-6.512-.067-7.043-5.043-4.871-8.243Zm0 0"/>
  <path fill="#1b2e34" d="M158.629 262.855c1.719-2.523 5.883-6.105 7.113-9.742a.694.694 0 0 1 .613-.5c2.122-.18 11.172-1.68 16.696-8.422a.68.68 0 0 1 .562-.254c.11.004.211.036.305.09a.678.678 0 0 1 .234.215c2.133 3.395 4.133 5.719 4.133 10.094 0 5.883-18.437 17.496-24.95 17.43-6.51-.067-6.878-5.711-4.706-8.91Zm72.684.317c-6.11 2.246-27.387-2.43-29.383-7.965-1.496-4.113-.38-6.977.48-10.894a.666.666 0 0 1 .402-.469.676.676 0 0 1 .618.047c7.492 4.496 16.484 2.832 18.558 2.25a.691.691 0 0 1 .75.261c2.39 2.996 7.492 4.989 9.989 6.782 3.132 2.312 4.691 7.71-1.415 9.988Zm0 0"/>
  <path fill="#1b2e34" d="M189.352 166.602c4.496-.051 9.484-1.38 13.687-1.79 9.66-.945 23.867-.242 28.031 18.813 4.25 19.43-7.761 60.23-7.761 60.23-10.61-.187-20.645-4.167-20.645-4.167s3.793-23.676 3.41-35.215c-.383-11.54-2.246-17.047-24.457-14.461-25.61 2.996.219 49.879.219 49.879-2.914 4.691-16.246 10.797-16.246 10.797s-19.145-26.973-22.836-52.84c-3.695-25.868 16.437-34.828 33.867-32.668 1.73.195 6.856 1.488 12.73 1.422Zm0 0"/>
  <path fill="#febbaa" d="M229.926 166.219c1.496.75 6.293 2.84 6.293 2.84a23.624 23.624 0 0 0-.887 6.332c-.012 2.152.27 4.265.836 6.34 1.363 5.378-3.914 13.14-4.73 6.945-.817-6.196-2.032-7.64-5.247-13.766-2.996-5.691-3.746-7.55-.554-11.62a35.523 35.523 0 0 0 4.289 2.929Zm0 0"/>
</svg>
