<svg width="64" height="64" viewBox="0 0 64 64" fill="none" xmlns="http://www.w3.org/2000/svg">
  <g filter="url(#a)">
    <rect width="64" height="64" rx="10" fill="#7631EA"/>
    <rect width="64" height="64" rx="10" fill="url(#b)"/>
  </g>
  <g filter="url(#c)" clip-path="url(#d)">
    <path d="M39.815 28.584h-1.788a11.74 11.74 0 0 0-3.167-5.536 11.257 11.257 0 0 0-5.538-2.975c-2.08-.44-4.24-.271-6.232.486a11.378 11.378 0 0 0-5.037 3.8 11.847 11.847 0 0 0-2.317 5.963 11.945 11.945 0 0 0 1.104 6.32 11.561 11.561 0 0 0 4.192 4.762 11.13 11.13 0 0 0 6.009 1.763h12.774a7.002 7.002 0 0 0 5.018-2.136 7.395 7.395 0 0 0 2.079-5.156 7.394 7.394 0 0 0-2.079-5.156 7.002 7.002 0 0 0-5.018-2.136Z" fill="#C4C4C4"/>
    <path d="M39.815 28.584h-1.788a11.74 11.74 0 0 0-3.167-5.536 11.257 11.257 0 0 0-5.538-2.975c-2.08-.44-4.24-.271-6.232.486a11.378 11.378 0 0 0-5.037 3.8 11.847 11.847 0 0 0-2.317 5.963 11.945 11.945 0 0 0 1.104 6.32 11.561 11.561 0 0 0 4.192 4.762 11.13 11.13 0 0 0 6.009 1.763h12.774a7.002 7.002 0 0 0 5.018-2.136 7.395 7.395 0 0 0 2.079-5.156 7.394 7.394 0 0 0-2.079-5.156 7.002 7.002 0 0 0-5.018-2.136Z" fill="url(#e)"/>
  </g>
  <defs>
    <linearGradient id="b" x1="32" y1="0" x2="32" y2="64" gradientUnits="userSpaceOnUse">
      <stop stop-color="#8614F8"/>
      <stop offset="1" stop-color="#760BE0"/>
    </linearGradient>
    <linearGradient id="e" x1="26.505" y1="21.11" x2="31.546" y2="43.109" gradientUnits="userSpaceOnUse">
      <stop stop-color="#fff"/>
      <stop offset="1" stop-color="#CCBED5"/>
    </linearGradient>
    <filter id="a" x="0" y="0" width="64" height="65" filterUnits="userSpaceOnUse" color-interpolation-filters="sRGB">
      <feFlood flood-opacity="0" result="BackgroundImageFix"/>
      <feBlend in="SourceGraphic" in2="BackgroundImageFix" result="shape"/>
      <feColorMatrix in="SourceAlpha" values="0 0 0 0 0 0 0 0 0 0 0 0 0 0 0 0 0 0 127 0" result="hardAlpha"/>
      <feOffset dy="1"/>
      <feGaussianBlur stdDeviation=".5"/>
      <feComposite in2="hardAlpha" operator="arithmetic" k2="-1" k3="1"/>
      <feColorMatrix values="0 0 0 0 0.96178 0 0 0 0 0.955184 0 0 0 0 0.966963 0 0 0 0.25 0"/>
      <feBlend in2="shape" result="effect1_innerShadow"/>
    </filter>
    <filter id="c" x="11.678" y="19.834" width="39.234" height="31.333" filterUnits="userSpaceOnUse" color-interpolation-filters="sRGB">
      <feFlood flood-opacity="0" result="BackgroundImageFix"/>
      <feColorMatrix in="SourceAlpha" values="0 0 0 0 0 0 0 0 0 0 0 0 0 0 0 0 0 0 127 0"/>
      <feOffset dy="4"/>
      <feGaussianBlur stdDeviation="2"/>
      <feColorMatrix values="0 0 0 0 0 0 0 0 0 0 0 0 0 0 0 0 0 0 0.15 0"/>
      <feBlend in2="BackgroundImageFix" result="effect1_dropShadow"/>
      <feBlend in="SourceGraphic" in2="effect1_dropShadow" result="shape"/>
      <feColorMatrix in="SourceAlpha" values="0 0 0 0 0 0 0 0 0 0 0 0 0 0 0 0 0 0 127 0" result="hardAlpha"/>
      <feOffset dy=".5"/>
      <feGaussianBlur stdDeviation=".5"/>
      <feComposite in2="hardAlpha" operator="arithmetic" k2="-1" k3="1"/>
      <feColorMatrix values="0 0 0 0 0.96178 0 0 0 0 0.955184 0 0 0 0 0.966963 0 0 0 0.25 0"/>
      <feBlend in2="shape" result="effect2_innerShadow"/>
    </filter>
    <clipPath id="d">
      <path fill="#fff" transform="translate(10 14)" d="M0 0h44v35H0z"/>
    </clipPath>
  </defs>
</svg>
