<svg width="64" height="64" viewBox="0 0 64 64" fill="none" xmlns="http://www.w3.org/2000/svg">
  <g filter="url(#a)">
    <rect width="64" height="64" rx="10" fill="#7631EA"/>
    <rect width="64" height="64" rx="10" fill="url(#b)"/>
  </g>
  <g filter="url(#c)">
    <g filter="url(#d)">
      <path d="M27.417 18.625h-6.792a2 2 0 0 0-2 2v6.792a2 2 0 0 0 2 2h6.792a2 2 0 0 0 2-2v-6.792a2 2 0 0 0-2-2Z" fill="#C4C4C4"/>
      <path d="M27.417 18.625h-6.792a2 2 0 0 0-2 2v6.792a2 2 0 0 0 2 2h6.792a2 2 0 0 0 2-2v-6.792a2 2 0 0 0-2-2Z" fill="url(#e)"/>
    </g>
    <g filter="url(#f)">
      <path d="M44.376 18.625h-6.792a2 2 0 0 0-2 2v6.792a2 2 0 0 0 2 2h6.792a2 2 0 0 0 2-2v-6.792a2 2 0 0 0-2-2Z" fill="#C4C4C4"/>
      <path d="M44.376 18.625h-6.792a2 2 0 0 0-2 2v6.792a2 2 0 0 0 2 2h6.792a2 2 0 0 0 2-2v-6.792a2 2 0 0 0-2-2Z" fill="url(#g)"/>
    </g>
    <g filter="url(#h)">
      <path d="M44.376 35.584h-6.792a2 2 0 0 0-2 2v6.791a2 2 0 0 0 2 2h6.792a2 2 0 0 0 2-2v-6.791a2 2 0 0 0-2-2Z" fill="#C4C4C4"/>
      <path d="M44.376 35.584h-6.792a2 2 0 0 0-2 2v6.791a2 2 0 0 0 2 2h6.792a2 2 0 0 0 2-2v-6.791a2 2 0 0 0-2-2Z" fill="url(#i)"/>
    </g>
    <g filter="url(#j)">
      <path d="M27.417 35.584h-6.792a2 2 0 0 0-2 2v6.791a2 2 0 0 0 2 2h6.792a2 2 0 0 0 2-2v-6.791a2 2 0 0 0-2-2Z" fill="#C4C4C4"/>
      <path d="M27.417 35.584h-6.792a2 2 0 0 0-2 2v6.791a2 2 0 0 0 2 2h6.792a2 2 0 0 0 2-2v-6.791a2 2 0 0 0-2-2Z" fill="url(#k)"/>
    </g>
  </g>
  <defs>
    <filter id="a" x="0" y="0" width="64" height="65" filterUnits="userSpaceOnUse" color-interpolation-filters="sRGB">
      <feFlood flood-opacity="0" result="BackgroundImageFix"/>
      <feBlend in="SourceGraphic" in2="BackgroundImageFix" result="shape"/>
      <feColorMatrix in="SourceAlpha" values="0 0 0 0 0 0 0 0 0 0 0 0 0 0 0 0 0 0 127 0" result="hardAlpha"/>
      <feOffset dy="1"/>
      <feGaussianBlur stdDeviation=".5"/>
      <feComposite in2="hardAlpha" operator="arithmetic" k2="-1" k3="1"/>
      <feColorMatrix values="0 0 0 0 0.96178 0 0 0 0 0.955184 0 0 0 0 0.966963 0 0 0 0.25 0"/>
      <feBlend in2="shape" result="effect1_innerShadow"/>
    </filter>
    <filter id="c" x="10" y="14" width="45" height="45" filterUnits="userSpaceOnUse" color-interpolation-filters="sRGB">
      <feFlood flood-opacity="0" result="BackgroundImageFix"/>
      <feColorMatrix in="SourceAlpha" values="0 0 0 0 0 0 0 0 0 0 0 0 0 0 0 0 0 0 127 0"/>
      <feOffset dy="4"/>
      <feGaussianBlur stdDeviation="2"/>
      <feColorMatrix values="0 0 0 0 0 0 0 0 0 0 0 0 0 0 0 0 0 0 0.15 0"/>
      <feBlend in2="BackgroundImageFix" result="effect1_dropShadow"/>
      <feBlend in="SourceGraphic" in2="effect1_dropShadow" result="shape"/>
    </filter>
    <filter id="d" x="18.625" y="18.625" width="10.792" height="11.292" filterUnits="userSpaceOnUse" color-interpolation-filters="sRGB">
      <feFlood flood-opacity="0" result="BackgroundImageFix"/>
      <feBlend in="SourceGraphic" in2="BackgroundImageFix" result="shape"/>
      <feColorMatrix in="SourceAlpha" values="0 0 0 0 0 0 0 0 0 0 0 0 0 0 0 0 0 0 127 0" result="hardAlpha"/>
      <feOffset dy=".5"/>
      <feGaussianBlur stdDeviation=".5"/>
      <feComposite in2="hardAlpha" operator="arithmetic" k2="-1" k3="1"/>
      <feColorMatrix values="0 0 0 0 0.96178 0 0 0 0 0.955184 0 0 0 0 0.966963 0 0 0 0.25 0"/>
      <feBlend in2="shape" result="effect1_innerShadow"/>
    </filter>
    <filter id="f" x="35.584" y="18.625" width="10.792" height="11.292" filterUnits="userSpaceOnUse" color-interpolation-filters="sRGB">
      <feFlood flood-opacity="0" result="BackgroundImageFix"/>
      <feBlend in="SourceGraphic" in2="BackgroundImageFix" result="shape"/>
      <feColorMatrix in="SourceAlpha" values="0 0 0 0 0 0 0 0 0 0 0 0 0 0 0 0 0 0 127 0" result="hardAlpha"/>
      <feOffset dy=".5"/>
      <feGaussianBlur stdDeviation=".5"/>
      <feComposite in2="hardAlpha" operator="arithmetic" k2="-1" k3="1"/>
      <feColorMatrix values="0 0 0 0 0.96178 0 0 0 0 0.955184 0 0 0 0 0.966963 0 0 0 0.25 0"/>
      <feBlend in2="shape" result="effect1_innerShadow"/>
    </filter>
    <filter id="h" x="35.584" y="35.584" width="10.792" height="11.292" filterUnits="userSpaceOnUse" color-interpolation-filters="sRGB">
      <feFlood flood-opacity="0" result="BackgroundImageFix"/>
      <feBlend in="SourceGraphic" in2="BackgroundImageFix" result="shape"/>
      <feColorMatrix in="SourceAlpha" values="0 0 0 0 0 0 0 0 0 0 0 0 0 0 0 0 0 0 127 0" result="hardAlpha"/>
      <feOffset dy=".5"/>
      <feGaussianBlur stdDeviation=".5"/>
      <feComposite in2="hardAlpha" operator="arithmetic" k2="-1" k3="1"/>
      <feColorMatrix values="0 0 0 0 0.96178 0 0 0 0 0.955184 0 0 0 0 0.966963 0 0 0 0.25 0"/>
      <feBlend in2="shape" result="effect1_innerShadow"/>
    </filter>
    <filter id="j" x="18.625" y="35.584" width="10.792" height="11.292" filterUnits="userSpaceOnUse" color-interpolation-filters="sRGB">
      <feFlood flood-opacity="0" result="BackgroundImageFix"/>
      <feBlend in="SourceGraphic" in2="BackgroundImageFix" result="shape"/>
      <feColorMatrix in="SourceAlpha" values="0 0 0 0 0 0 0 0 0 0 0 0 0 0 0 0 0 0 127 0" result="hardAlpha"/>
      <feOffset dy=".5"/>
      <feGaussianBlur stdDeviation=".5"/>
      <feComposite in2="hardAlpha" operator="arithmetic" k2="-1" k3="1"/>
      <feColorMatrix values="0 0 0 0 0.96178 0 0 0 0 0.955184 0 0 0 0 0.966963 0 0 0 0.25 0"/>
      <feBlend in2="shape" result="effect1_innerShadow"/>
    </filter>
    <linearGradient id="b" x1="32" y1="0" x2="32" y2="64" gradientUnits="userSpaceOnUse">
      <stop stop-color="#8614F8"/>
      <stop offset="1" stop-color="#760BE0"/>
    </linearGradient>
    <linearGradient id="e" x1="22.366" y1="19.215" x2="25.368" y2="29.003" gradientUnits="userSpaceOnUse">
      <stop stop-color="#fff"/>
      <stop offset="1" stop-color="#CCBED5"/>
    </linearGradient>
    <linearGradient id="g" x1="39.325" y1="19.215" x2="42.327" y2="29.003" gradientUnits="userSpaceOnUse">
      <stop stop-color="#fff"/>
      <stop offset="1" stop-color="#CCBED5"/>
    </linearGradient>
    <linearGradient id="i" x1="39.325" y1="36.174" x2="42.327" y2="45.962" gradientUnits="userSpaceOnUse">
      <stop stop-color="#fff"/>
      <stop offset="1" stop-color="#CCBED5"/>
    </linearGradient>
    <linearGradient id="k" x1="22.366" y1="36.174" x2="25.368" y2="45.962" gradientUnits="userSpaceOnUse">
      <stop stop-color="#fff"/>
      <stop offset="1" stop-color="#CCBED5"/>
    </linearGradient>
  </defs>
</svg>
